<svg width="3690" height="2935" viewBox="0 0 3690 2935" fill="none" xmlns="http://www.w3.org/2000/svg">
<g clip-path="url(#clip0_8_2)">
<path d="M2529.45 313.508L2540.2 754.914H2500.16C2481.28 644.237 2434.73 555.37 2360.51 488.312C2286.94 420.604 2207.19 386.75 2121.25 386.75C2054.84 386.75 2002.11 404.654 1963.05 440.461C1924.64 475.617 1905.43 516.307 1905.43 562.531C1905.43 591.828 1912.27 617.87 1925.94 640.656C1944.82 671.255 1975.09 701.529 2016.76 731.477C2047.36 752.961 2117.99 791.047 2228.67 845.734C2383.62 921.906 2488.11 993.846 2542.15 1061.55C2595.53 1129.26 2622.23 1206.74 2622.23 1293.98C2622.23 1404.65 2578.93 1500.03 2492.34 1580.11C2406.41 1659.54 2297.03 1699.25 2164.22 1699.25C2122.55 1699.25 2083.16 1695.02 2046.05 1686.55C2008.95 1678.09 1962.4 1662.14 1906.41 1638.7C1875.16 1625.68 1849.44 1619.17 1829.26 1619.17C1812.33 1619.17 1794.43 1625.68 1775.55 1638.7C1756.67 1651.72 1741.37 1671.58 1729.65 1698.27H1693.52V1198.27H1729.65C1758.29 1338.9 1813.31 1446.32 1894.69 1520.54C1976.72 1594.11 2064.93 1630.89 2159.34 1630.89C2232.25 1630.89 2290.2 1611.03 2333.16 1571.32C2376.78 1531.61 2398.59 1485.38 2398.59 1432.65C2398.59 1401.4 2390.13 1371.12 2373.2 1341.83C2356.93 1312.53 2331.86 1284.86 2298.01 1258.82C2264.15 1232.13 2204.26 1197.62 2118.32 1155.3C1997.88 1096.06 1911.29 1045.6 1858.55 1003.94C1805.82 962.271 1765.13 915.721 1736.48 864.289C1708.49 812.857 1694.49 756.216 1694.49 694.367C1694.49 588.898 1733.23 499.055 1810.7 424.836C1888.18 350.617 1985.83 313.508 2103.67 313.508C2146.64 313.508 2188.31 318.716 2228.67 329.133C2259.27 336.945 2296.38 351.594 2340 373.078C2384.27 393.911 2415.2 404.328 2432.77 404.328C2449.7 404.328 2463.05 399.12 2472.81 388.703C2482.58 378.286 2491.69 353.221 2500.16 313.508H2529.45Z" fill="white"/>
<path d="M2539.21 219.334V747.166H2495.41C2462.46 609.406 2401.07 503.839 2311.23 430.467C2221.38 357.094 2119.56 320.408 2005.76 320.408C1910.67 320.408 1823.45 347.736 1744.09 402.391C1664.73 457.046 1606.7 528.546 1570.02 616.893C1522.85 729.946 1499.26 855.727 1499.26 994.236C1499.26 1130.5 1516.48 1254.78 1550.92 1367.09C1585.36 1478.64 1639.27 1563.25 1712.64 1620.9C1786.01 1677.8 1881.1 1706.25 1997.9 1706.25C2093.73 1706.25 2181.33 1685.28 2260.69 1643.36C2340.8 1601.43 2425.03 1529.18 2513.38 1426.61V1558.01C2428.02 1647.1 2338.93 1711.86 2246.09 1752.29C2154 1791.97 2046.19 1811.81 1922.65 1811.81C1760.18 1811.81 1615.69 1779.25 1489.16 1714.11C1363.38 1648.97 1266.04 1555.39 1197.16 1433.35C1129.03 1311.31 1094.97 1181.41 1094.97 1043.65C1094.97 898.403 1132.78 760.643 1208.39 630.369C1284.76 500.096 1387.33 399.021 1516.11 327.146C1645.63 255.271 1783.02 219.334 1928.27 219.334C2035.33 219.334 2148.38 242.544 2267.43 288.963C2336.31 315.916 2380.11 329.393 2398.82 329.393C2422.78 329.393 2443.37 320.783 2460.59 303.562C2478.56 285.594 2490.17 257.518 2495.41 219.334H2539.21Z" fill="white"/>
<path d="M2397 1444.56C2397 1594.47 2222.26 1716 2006.7 1716C1791.15 1716 1616.41 1594.47 1616.41 1444.56C1616.41 1294.64 1588.01 1009.51 2006.7 1173.11C2222.26 1173.11 2397 1294.64 2397 1444.56Z" fill="#1F1F1F"/>
<path d="M337 2329C322.333 2329 307.667 2327.83 293 2325.5C278.333 2323.5 264.5 2320.33 251.5 2316C238.5 2311.33 226.833 2305.67 216.5 2299C210.5 2295 206.333 2290.17 204 2284.5C201.667 2278.83 200.833 2273.33 201.5 2268C202.5 2262.33 204.667 2257.5 208 2253.5C211.667 2249.17 216.167 2246.5 221.5 2245.5C226.833 2244.5 232.667 2246 239 2250C253.667 2258.67 269.167 2265 285.5 2269C301.833 2273 319 2275 337 2275C363.333 2275 382.5 2270.67 394.5 2262C406.5 2253 412.5 2241.5 412.5 2227.5C412.5 2215.83 408.167 2206.67 399.5 2200C391.167 2193.33 376.667 2187.83 356 2183.5L301 2172C269.333 2165.33 245.667 2154.17 230 2138.5C214.667 2122.5 207 2101.5 207 2075.5C207 2059.17 210.333 2044.33 217 2031C223.667 2017.67 233 2006.17 245 1996.5C257.333 1986.83 271.833 1979.5 288.5 1974.5C305.5 1969.17 324.167 1966.5 344.5 1966.5C364.5 1966.5 383.5 1969 401.5 1974C419.5 1979 435.667 1986.33 450 1996C455.333 1999.67 458.833 2004.17 460.5 2009.5C462.5 2014.83 463 2020.17 462 2025.5C461 2030.5 458.667 2034.83 455 2038.5C451.333 2042.17 446.667 2044.33 441 2045C435.667 2045.67 429.5 2044 422.5 2040C410.167 2033 397.667 2028 385 2025C372.333 2022 358.667 2020.5 344 2020.5C328.667 2020.5 315.5 2022.67 304.5 2027C293.5 2031.33 285 2037.5 279 2045.5C273.333 2053.17 270.5 2062.33 270.5 2073C270.5 2085 274.5 2094.67 282.5 2102C290.5 2109 304.167 2114.5 323.5 2118.5L378 2130C411 2137 435.5 2148 451.5 2163C467.833 2178 476 2198 476 2223C476 2239 472.667 2253.5 466 2266.5C459.667 2279.5 450.333 2290.67 438 2300C426 2309.33 411.5 2316.5 394.5 2321.5C377.5 2326.5 358.333 2329 337 2329ZM605.43 2329C587.763 2329 571.93 2325.67 557.93 2319C544.263 2312 533.43 2302.67 525.43 2291C517.763 2279.33 513.93 2266.17 513.93 2251.5C513.93 2233.5 518.596 2219.33 527.93 2209C537.263 2198.33 552.43 2190.67 573.43 2186C594.43 2181.33 622.596 2179 657.93 2179H682.93V2215H658.43C637.763 2215 621.263 2216 608.93 2218C596.596 2220 587.763 2223.5 582.43 2228.5C577.43 2233.17 574.93 2239.83 574.93 2248.5C574.93 2259.5 578.763 2268.5 586.43 2275.5C594.096 2282.5 604.763 2286 618.43 2286C629.43 2286 639.096 2283.5 647.43 2278.5C656.096 2273.17 662.93 2266 667.93 2257C672.93 2248 675.43 2237.67 675.43 2226V2168.5C675.43 2151.83 671.763 2139.83 664.43 2132.5C657.096 2125.17 644.763 2121.5 627.43 2121.5C617.763 2121.5 607.263 2122.67 595.93 2125C584.93 2127.33 573.263 2131.33 560.93 2137C554.596 2140 548.93 2140.83 543.93 2139.5C539.263 2138.17 535.596 2135.5 532.93 2131.5C530.263 2127.17 528.93 2122.5 528.93 2117.5C528.93 2112.5 530.263 2107.67 532.93 2103C535.596 2098 540.096 2094.33 546.43 2092C561.763 2085.67 576.43 2081.17 590.43 2078.5C604.763 2075.83 617.763 2074.5 629.43 2074.5C653.43 2074.5 673.096 2078.17 688.43 2085.5C704.096 2092.83 715.763 2104 723.43 2119C731.096 2133.67 734.93 2152.67 734.93 2176V2296C734.93 2306.33 732.43 2314.33 727.43 2320C722.43 2325.33 715.263 2328 705.93 2328C696.596 2328 689.263 2325.33 683.93 2320C678.93 2314.33 676.43 2306.33 676.43 2296V2272H680.43C678.096 2283.67 673.43 2293.83 666.43 2302.5C659.763 2310.83 651.263 2317.33 640.93 2322C630.596 2326.67 618.763 2329 605.43 2329ZM830.367 2328C820.367 2328 812.701 2325.33 807.367 2320C802.034 2314.33 799.367 2306.33 799.367 2296V2107C799.367 2096.67 802.034 2088.83 807.367 2083.5C812.701 2078.17 820.201 2075.5 829.867 2075.5C839.534 2075.5 847.034 2078.17 852.367 2083.5C857.701 2088.83 860.367 2096.67 860.367 2107V2143.5L854.867 2128.5C861.534 2111.83 871.867 2098.67 885.867 2089C899.867 2079.33 916.534 2074.5 935.867 2074.5C955.534 2074.5 971.701 2079.17 984.367 2088.5C997.034 2097.83 1005.87 2112.17 1010.87 2131.5H1003.87C1010.53 2113.83 1021.53 2100 1036.87 2090C1052.2 2079.67 1069.87 2074.5 1089.87 2074.5C1108.53 2074.5 1123.87 2078.17 1135.87 2085.5C1148.2 2092.83 1157.37 2104 1163.37 2119C1169.37 2133.67 1172.37 2152.33 1172.37 2175V2296C1172.37 2306.33 1169.53 2314.33 1163.87 2320C1158.53 2325.33 1150.87 2328 1140.87 2328C1130.87 2328 1123.2 2325.33 1117.87 2320C1112.53 2314.33 1109.87 2306.33 1109.87 2296V2177.5C1109.87 2158.83 1106.7 2145.17 1100.37 2136.5C1094.37 2127.83 1084.03 2123.5 1069.37 2123.5C1053.03 2123.5 1040.2 2129.33 1030.87 2141C1021.53 2152.33 1016.87 2168.17 1016.87 2188.5V2296C1016.87 2306.33 1014.2 2314.33 1008.87 2320C1003.53 2325.33 995.867 2328 985.867 2328C975.867 2328 968.034 2325.33 962.367 2320C957.034 2314.33 954.367 2306.33 954.367 2296V2177.5C954.367 2158.83 951.201 2145.17 944.867 2136.5C938.867 2127.83 928.701 2123.5 914.367 2123.5C898.034 2123.5 885.201 2129.33 875.867 2141C866.534 2152.33 861.867 2168.17 861.867 2188.5V2296C861.867 2317.33 851.367 2328 830.367 2328ZM1377.84 2329C1357.18 2329 1339.01 2323.83 1323.34 2313.5C1308.01 2303.17 1297.84 2289.33 1292.84 2272L1298.34 2259.5V2296C1298.34 2306.33 1295.68 2314.33 1290.34 2320C1285.01 2325.33 1277.51 2328 1267.84 2328C1257.84 2328 1250.18 2325.33 1244.84 2320C1239.51 2314.33 1236.84 2306.33 1236.84 2296V1999C1236.84 1988.67 1239.51 1980.83 1244.84 1975.5C1250.18 1970.17 1257.84 1967.5 1267.84 1967.5C1277.84 1967.5 1285.51 1970.17 1290.84 1975.5C1296.51 1980.83 1299.34 1988.67 1299.34 1999V2129H1293.34C1298.68 2112.67 1309.01 2099.5 1324.34 2089.5C1339.68 2079.5 1357.51 2074.5 1377.84 2074.5C1399.51 2074.5 1418.34 2079.67 1434.34 2090C1450.34 2100.33 1462.84 2115 1471.84 2134C1480.84 2152.67 1485.34 2175.17 1485.34 2201.5C1485.34 2227.5 1480.84 2250.17 1471.84 2269.5C1462.84 2288.5 1450.18 2303.17 1433.84 2313.5C1417.84 2323.83 1399.18 2329 1377.84 2329ZM1360.34 2281.5C1372.68 2281.5 1383.51 2278.5 1392.84 2272.5C1402.18 2266.5 1409.34 2257.67 1414.34 2246C1419.68 2234 1422.34 2219.17 1422.34 2201.5C1422.34 2174.83 1416.68 2155 1405.34 2142C1394.01 2128.67 1379.01 2122 1360.34 2122C1348.01 2122 1337.18 2125 1327.84 2131C1318.51 2136.67 1311.18 2145.5 1305.84 2157.5C1300.84 2169.17 1298.34 2183.83 1298.34 2201.5C1298.34 2227.83 1304.01 2247.83 1315.34 2261.5C1326.68 2274.83 1341.68 2281.5 1360.34 2281.5ZM1617.15 2329C1599.48 2329 1583.65 2325.67 1569.65 2319C1555.98 2312 1545.15 2302.67 1537.15 2291C1529.48 2279.33 1525.65 2266.17 1525.65 2251.5C1525.65 2233.5 1530.32 2219.33 1539.65 2209C1548.98 2198.33 1564.15 2190.67 1585.15 2186C1606.15 2181.33 1634.32 2179 1669.65 2179H1694.65V2215H1670.15C1649.48 2215 1632.98 2216 1620.65 2218C1608.32 2220 1599.48 2223.5 1594.15 2228.5C1589.15 2233.17 1586.65 2239.83 1586.65 2248.5C1586.65 2259.5 1590.48 2268.5 1598.15 2275.5C1605.82 2282.5 1616.48 2286 1630.15 2286C1641.15 2286 1650.82 2283.5 1659.15 2278.5C1667.82 2273.17 1674.65 2266 1679.65 2257C1684.65 2248 1687.15 2237.67 1687.15 2226V2168.5C1687.15 2151.83 1683.48 2139.83 1676.15 2132.5C1668.82 2125.17 1656.48 2121.5 1639.15 2121.5C1629.48 2121.5 1618.98 2122.67 1607.65 2125C1596.65 2127.33 1584.98 2131.33 1572.65 2137C1566.32 2140 1560.65 2140.83 1555.65 2139.5C1550.98 2138.17 1547.32 2135.5 1544.65 2131.5C1541.98 2127.17 1540.65 2122.5 1540.65 2117.5C1540.65 2112.5 1541.98 2107.67 1544.65 2103C1547.32 2098 1551.82 2094.33 1558.15 2092C1573.48 2085.67 1588.15 2081.17 1602.15 2078.5C1616.48 2075.83 1629.48 2074.5 1641.15 2074.5C1665.15 2074.5 1684.82 2078.17 1700.15 2085.5C1715.82 2092.83 1727.48 2104 1735.15 2119C1742.82 2133.67 1746.65 2152.67 1746.65 2176V2296C1746.65 2306.33 1744.15 2314.33 1739.15 2320C1734.15 2325.33 1726.98 2328 1717.65 2328C1708.32 2328 1700.98 2325.33 1695.65 2320C1690.65 2314.33 1688.15 2306.33 1688.15 2296V2272H1692.15C1689.82 2283.67 1685.15 2293.83 1678.15 2302.5C1671.48 2310.83 1662.98 2317.33 1652.65 2322C1642.32 2326.67 1630.48 2329 1617.15 2329ZM1980.09 2329C1943.42 2329 1911.92 2321.67 1885.59 2307C1859.59 2292 1839.59 2271 1825.59 2244C1811.59 2216.67 1804.59 2184.5 1804.59 2147.5C1804.59 2119.83 1808.59 2095 1816.59 2073C1824.59 2050.67 1836.09 2031.67 1851.09 2016C1866.09 2000 1884.42 1987.83 1906.09 1979.5C1928.09 1970.83 1952.75 1966.5 1980.09 1966.5C1998.42 1966.5 2016.42 1968.83 2034.09 1973.5C2051.75 1978.17 2067.25 1984.83 2080.59 1993.5C2087.59 1997.83 2092.25 2003.17 2094.59 2009.5C2096.92 2015.5 2097.42 2021.5 2096.09 2027.5C2094.75 2033.17 2091.92 2038 2087.59 2042C2083.59 2046 2078.42 2048.33 2072.09 2049C2066.09 2049.33 2059.42 2047.17 2052.09 2042.5C2041.75 2035.83 2030.59 2031 2018.59 2028C2006.59 2025 1994.42 2023.5 1982.09 2023.5C1958.42 2023.5 1938.42 2028.33 1922.09 2038C1905.75 2047.67 1893.42 2061.67 1885.09 2080C1876.75 2098.33 1872.59 2120.83 1872.59 2147.5C1872.59 2173.83 1876.75 2196.33 1885.09 2215C1893.42 2233.67 1905.75 2247.83 1922.09 2257.5C1938.42 2267.17 1958.42 2272 1982.09 2272C1994.75 2272 2007.25 2270.5 2019.59 2267.5C2031.92 2264.17 2043.59 2259.17 2054.59 2252.5C2061.92 2248.17 2068.42 2246.33 2074.09 2247C2080.09 2247.33 2085.09 2249.33 2089.09 2253C2093.09 2256.67 2095.75 2261.33 2097.09 2267C2098.42 2272.33 2098.09 2278 2096.09 2284C2094.09 2289.67 2090.09 2294.67 2084.09 2299C2070.75 2308.67 2054.75 2316.17 2036.09 2321.5C2017.75 2326.5 1999.09 2329 1980.09 2329ZM2187.93 2328C2177.6 2328 2169.6 2325.17 2163.93 2319.5C2158.6 2313.5 2155.93 2305.33 2155.93 2295V2000.5C2155.93 1989.83 2158.6 1981.67 2163.93 1976C2169.6 1970.33 2177.6 1967.5 2187.93 1967.5C2198.26 1967.5 2206.1 1970.33 2211.43 1976C2217.1 1981.67 2219.93 1989.83 2219.93 2000.5V2118.5H2401.43V2000.5C2401.43 1989.83 2404.1 1981.67 2409.43 1976C2415.1 1970.33 2423.1 1967.5 2433.43 1967.5C2443.76 1967.5 2451.6 1970.33 2456.93 1976C2462.6 1981.67 2465.43 1989.83 2465.43 2000.5V2295C2465.43 2305.33 2462.6 2313.5 2456.93 2319.5C2451.6 2325.17 2443.76 2328 2433.43 2328C2423.1 2328 2415.1 2325.17 2409.43 2319.5C2404.1 2313.5 2401.43 2305.33 2401.43 2295V2172H2219.93V2295C2219.93 2305.33 2217.26 2313.5 2211.93 2319.5C2206.6 2325.17 2198.6 2328 2187.93 2328ZM2576.65 2324C2565.65 2324 2557.15 2321.17 2551.15 2315.5C2545.48 2309.5 2542.65 2301 2542.65 2290V2005.5C2542.65 1994.5 2545.48 1986.17 2551.15 1980.5C2557.15 1974.5 2565.65 1971.5 2576.65 1971.5H2755.15C2763.48 1971.5 2769.82 1973.67 2774.15 1978C2778.82 1982.33 2781.15 1988.5 2781.15 1996.5C2781.15 2004.83 2778.82 2011.33 2774.15 2016C2769.82 2020.33 2763.48 2022.5 2755.15 2022.5H2604.15V2119.5H2744.15C2752.82 2119.5 2759.32 2121.67 2763.65 2126C2767.98 2130.33 2770.15 2136.67 2770.15 2145C2770.15 2153.33 2767.98 2159.67 2763.65 2164C2759.32 2168.33 2752.82 2170.5 2744.15 2170.5H2604.15V2273H2755.15C2763.48 2273 2769.82 2275.17 2774.15 2279.5C2778.82 2283.83 2781.15 2290.17 2781.15 2298.5C2781.15 2306.83 2778.82 2313.17 2774.15 2317.5C2769.82 2321.83 2763.48 2324 2755.15 2324H2576.65ZM3004.5 2329C2967.83 2329 2936.33 2321.67 2910 2307C2884 2292 2864 2271 2850 2244C2836 2216.67 2829 2184.5 2829 2147.5C2829 2119.83 2833 2095 2841 2073C2849 2050.67 2860.5 2031.67 2875.5 2016C2890.5 2000 2908.83 1987.83 2930.5 1979.5C2952.5 1970.83 2977.17 1966.5 3004.5 1966.5C3022.83 1966.5 3040.83 1968.83 3058.5 1973.5C3076.17 1978.17 3091.67 1984.83 3105 1993.5C3112 1997.83 3116.67 2003.17 3119 2009.5C3121.33 2015.5 3121.83 2021.5 3120.5 2027.5C3119.17 2033.17 3116.33 2038 3112 2042C3108 2046 3102.83 2048.33 3096.5 2049C3090.5 2049.33 3083.83 2047.17 3076.5 2042.5C3066.17 2035.83 3055 2031 3043 2028C3031 2025 3018.83 2023.5 3006.5 2023.5C2982.83 2023.5 2962.83 2028.33 2946.5 2038C2930.17 2047.67 2917.83 2061.67 2909.5 2080C2901.17 2098.33 2897 2120.83 2897 2147.5C2897 2173.83 2901.17 2196.33 2909.5 2215C2917.83 2233.67 2930.17 2247.83 2946.5 2257.5C2962.83 2267.17 2982.83 2272 3006.5 2272C3019.17 2272 3031.67 2270.5 3044 2267.5C3056.33 2264.17 3068 2259.17 3079 2252.5C3086.33 2248.17 3092.83 2246.33 3098.5 2247C3104.5 2247.33 3109.5 2249.33 3113.5 2253C3117.5 2256.67 3120.17 2261.33 3121.5 2267C3122.83 2272.33 3122.5 2278 3120.5 2284C3118.5 2289.67 3114.5 2294.67 3108.5 2299C3095.17 2308.67 3079.17 2316.17 3060.5 2321.5C3042.17 2326.5 3023.5 2329 3004.5 2329ZM3212.34 2328C3202.01 2328 3194.01 2325.17 3188.34 2319.5C3183.01 2313.5 3180.34 2305.33 3180.34 2295V2000C3180.34 1989.33 3183.01 1981.33 3188.34 1976C3194.01 1970.33 3202.01 1967.5 3212.34 1967.5C3222.68 1967.5 3230.51 1970.33 3235.84 1976C3241.51 1981.33 3244.34 1989.33 3244.34 2000V2127.5H3245.34L3388.84 1983.5C3394.18 1978.17 3399.51 1974.17 3404.84 1971.5C3410.18 1968.83 3416.18 1967.5 3422.84 1967.5C3432.51 1967.5 3439.34 1970 3443.34 1975C3447.68 1980 3449.34 1985.83 3448.34 1992.5C3447.68 1999.17 3444.51 2005.33 3438.84 2011L3292.84 2155.5L3293.34 2126.5L3445.84 2281.5C3452.84 2288.17 3456.51 2295.17 3456.84 2302.5C3457.18 2309.83 3454.84 2316 3449.84 2321C3445.18 2325.67 3438.18 2328 3428.84 2328C3420.84 2328 3414.34 2326.33 3409.34 2323C3404.68 2319.67 3399.18 2314.83 3392.84 2308.5L3245.34 2161H3244.34V2295C3244.34 2305.33 3241.68 2313.5 3236.34 2319.5C3231.01 2325.17 3223.01 2328 3212.34 2328Z" fill="white"/>
<path d="M257.4 2692.8C236.867 2692.8 219.227 2688.69 204.48 2680.48C189.92 2672.08 178.72 2660.32 170.88 2645.2C163.04 2629.89 159.12 2611.88 159.12 2591.16C159.12 2575.67 161.36 2561.76 165.84 2549.44C170.32 2536.93 176.76 2526.29 185.16 2517.52C193.56 2508.56 203.827 2501.75 215.96 2497.08C228.28 2492.23 242.093 2489.8 257.4 2489.8C267.667 2489.8 277.747 2491.11 287.64 2493.72C297.533 2496.33 306.213 2500.07 313.68 2504.92C317.6 2507.35 320.213 2510.33 321.52 2513.88C322.827 2517.24 323.107 2520.6 322.36 2523.96C321.613 2527.13 320.027 2529.84 317.6 2532.08C315.36 2534.32 312.467 2535.63 308.92 2536C305.56 2536.19 301.827 2534.97 297.72 2532.36C291.933 2528.63 285.68 2525.92 278.96 2524.24C272.24 2522.56 265.427 2521.72 258.52 2521.72C245.267 2521.72 234.067 2524.43 224.92 2529.84C215.773 2535.25 208.867 2543.09 204.2 2553.36C199.533 2563.63 197.2 2576.23 197.2 2591.16C197.2 2605.91 199.533 2618.51 204.2 2628.96C208.867 2639.41 215.773 2647.35 224.92 2652.76C234.067 2658.17 245.267 2660.88 258.52 2660.88C265.613 2660.88 272.613 2660.04 279.52 2658.36C286.427 2656.49 292.96 2653.69 299.12 2649.96C303.227 2647.53 306.867 2646.51 310.04 2646.88C313.4 2647.07 316.2 2648.19 318.44 2650.24C320.68 2652.29 322.173 2654.91 322.92 2658.08C323.667 2661.07 323.48 2664.24 322.36 2667.6C321.24 2670.77 319 2673.57 315.64 2676C308.173 2681.41 299.213 2685.61 288.76 2688.6C278.493 2691.4 268.04 2692.8 257.4 2692.8ZM369.873 2692.24C364.273 2692.24 359.979 2690.75 356.993 2687.76C354.006 2684.59 352.513 2680.11 352.513 2674.32V2508C352.513 2502.21 354.006 2497.83 356.993 2494.84C359.979 2491.85 364.273 2490.36 369.873 2490.36C375.473 2490.36 379.766 2491.85 382.753 2494.84C385.926 2497.83 387.513 2502.21 387.513 2508V2580.52H383.593C387.699 2570.63 394.046 2563.16 402.633 2558.12C411.406 2552.89 421.299 2550.28 432.313 2550.28C443.326 2550.28 452.379 2552.33 459.473 2556.44C466.566 2560.55 471.886 2566.8 475.433 2575.2C478.979 2583.41 480.753 2593.87 480.753 2606.56V2674.32C480.753 2680.11 479.259 2684.59 476.273 2687.76C473.286 2690.75 468.993 2692.24 463.393 2692.24C457.793 2692.24 453.406 2690.75 450.233 2687.76C447.246 2684.59 445.753 2680.11 445.753 2674.32V2608.24C445.753 2597.6 443.699 2589.85 439.593 2585C435.673 2580.15 429.513 2577.72 421.113 2577.72C410.846 2577.72 402.633 2580.99 396.473 2587.52C390.499 2593.87 387.513 2602.36 387.513 2613V2674.32C387.513 2686.27 381.633 2692.24 369.873 2692.24ZM583.782 2692.8C568.288 2692.8 554.942 2689.91 543.742 2684.12C532.542 2678.33 523.862 2670.12 517.702 2659.48C511.728 2648.84 508.742 2636.24 508.742 2621.68C508.742 2607.49 511.635 2595.08 517.422 2584.44C523.395 2573.8 531.515 2565.49 541.782 2559.52C552.235 2553.36 564.088 2550.28 577.342 2550.28C587.048 2550.28 595.728 2551.87 603.382 2555.04C611.222 2558.21 617.848 2562.79 623.262 2568.76C628.862 2574.73 633.062 2582.01 635.862 2590.6C638.848 2599 640.342 2608.52 640.342 2619.16C640.342 2622.52 639.128 2625.13 636.702 2627C634.462 2628.68 631.195 2629.52 626.902 2629.52H537.022V2609.36H615.702L611.222 2613.56C611.222 2604.97 609.915 2597.79 607.302 2592C604.875 2586.21 601.235 2581.83 596.382 2578.84C591.715 2575.67 585.835 2574.08 578.742 2574.08C570.902 2574.08 564.182 2575.95 558.582 2579.68C553.168 2583.23 548.968 2588.36 545.982 2595.08C543.182 2601.61 541.782 2609.45 541.782 2618.6V2620.56C541.782 2635.87 545.328 2647.35 552.422 2655C559.702 2662.47 570.342 2666.2 584.342 2666.2C589.195 2666.2 594.608 2665.64 600.582 2664.52C606.742 2663.21 612.528 2661.07 617.942 2658.08C621.862 2655.84 625.315 2654.91 628.302 2655.28C631.288 2655.47 633.622 2656.49 635.302 2658.36C637.168 2660.23 638.288 2662.56 638.662 2665.36C639.035 2667.97 638.475 2670.68 636.982 2673.48C635.675 2676.28 633.342 2678.71 629.982 2680.76C623.448 2684.87 615.888 2687.95 607.302 2690C598.902 2691.87 591.062 2692.8 583.782 2692.8ZM731.339 2692.8C716.966 2692.8 704.459 2689.91 693.819 2684.12C683.179 2678.15 674.966 2669.75 669.179 2658.92C663.393 2648.09 660.499 2635.4 660.499 2620.84C660.499 2609.83 662.086 2600.03 665.259 2591.44C668.619 2582.67 673.379 2575.29 679.539 2569.32C685.699 2563.16 693.166 2558.49 701.939 2555.32C710.713 2551.96 720.513 2550.28 731.339 2550.28C737.499 2550.28 744.126 2551.12 751.219 2552.8C758.499 2554.48 765.313 2557.28 771.659 2561.2C774.646 2563.07 776.606 2565.31 777.539 2567.92C778.473 2570.53 778.659 2573.24 778.099 2576.04C777.539 2578.65 776.326 2580.99 774.459 2583.04C772.779 2584.91 770.633 2586.12 768.019 2586.68C765.406 2587.05 762.513 2586.4 759.339 2584.72C755.233 2582.29 751.033 2580.52 746.739 2579.4C742.446 2578.09 738.339 2577.44 734.419 2577.44C728.259 2577.44 722.846 2578.47 718.179 2580.52C713.513 2582.39 709.499 2585.19 706.139 2588.92C702.966 2592.47 700.539 2596.95 698.859 2602.36C697.179 2607.77 696.339 2614.03 696.339 2621.12C696.339 2634.93 699.606 2645.85 706.139 2653.88C712.859 2661.72 722.286 2665.64 734.419 2665.64C738.339 2665.64 742.353 2665.08 746.459 2663.96C750.753 2662.84 755.046 2661.07 759.339 2658.64C762.513 2656.96 765.313 2656.4 767.739 2656.96C770.353 2657.52 772.499 2658.83 774.179 2660.88C775.859 2662.75 776.886 2665.08 777.259 2667.88C777.633 2670.49 777.259 2673.11 776.139 2675.72C775.206 2678.33 773.339 2680.48 770.539 2682.16C764.379 2685.89 757.846 2688.6 750.939 2690.28C744.033 2691.96 737.499 2692.8 731.339 2692.8ZM817.49 2692.24C811.89 2692.24 807.596 2690.75 804.61 2687.76C801.623 2684.59 800.13 2680.11 800.13 2674.32V2508C800.13 2502.21 801.623 2497.83 804.61 2494.84C807.596 2491.85 811.89 2490.36 817.49 2490.36C823.09 2490.36 827.383 2491.85 830.37 2494.84C833.543 2497.83 835.13 2502.21 835.13 2508V2611.32H835.69L881.89 2562.6C885.623 2558.87 888.89 2555.97 891.69 2553.92C894.49 2551.87 898.316 2550.84 903.17 2550.84C908.023 2550.84 911.663 2552.15 914.09 2554.76C916.703 2557.19 918.01 2560.17 918.01 2563.72C918.01 2567.27 916.33 2570.81 912.97 2574.36L864.25 2625.88V2611.32L917.73 2669C921.09 2672.55 922.583 2676.19 922.21 2679.92C922.023 2683.47 920.53 2686.45 917.73 2688.88C914.93 2691.12 911.383 2692.24 907.09 2692.24C901.863 2692.24 897.663 2691.21 894.49 2689.16C891.503 2687.11 888.143 2684.03 884.41 2679.92L835.69 2628.96H835.13V2674.32C835.13 2686.27 829.25 2692.24 817.49 2692.24ZM1043.62 2691.96C1038.02 2691.96 1033.73 2690.28 1030.74 2686.92C1027.76 2683.56 1026.26 2678.89 1026.26 2672.92V2570.16C1026.26 2564 1027.76 2559.33 1030.74 2556.16C1033.73 2552.8 1038.02 2551.12 1043.62 2551.12C1049.22 2551.12 1053.52 2552.8 1056.5 2556.16C1059.68 2559.33 1061.26 2564 1061.26 2570.16V2672.92C1061.26 2678.89 1059.77 2683.56 1056.78 2686.92C1053.8 2690.28 1049.41 2691.96 1043.62 2691.96ZM1043.62 2525.08C1037.09 2525.08 1031.96 2523.49 1028.22 2520.32C1024.68 2516.96 1022.9 2512.39 1022.9 2506.6C1022.9 2500.63 1024.68 2496.05 1028.22 2492.88C1031.96 2489.71 1037.09 2488.12 1043.62 2488.12C1050.34 2488.12 1055.48 2489.71 1059.02 2492.88C1062.57 2496.05 1064.34 2500.63 1064.34 2506.6C1064.34 2512.39 1062.57 2516.96 1059.02 2520.32C1055.48 2523.49 1050.34 2525.08 1043.62 2525.08ZM1147.75 2692.8C1139.72 2692.8 1131.23 2691.96 1122.27 2690.28C1113.31 2688.6 1105.28 2685.71 1098.19 2681.6C1095.2 2679.73 1093.06 2677.59 1091.75 2675.16C1090.63 2672.55 1090.16 2670.03 1090.35 2667.6C1090.72 2664.99 1091.66 2662.75 1093.15 2660.88C1094.83 2659.01 1096.88 2657.8 1099.31 2657.24C1101.92 2656.68 1104.72 2657.15 1107.71 2658.64C1115.18 2662.19 1122.18 2664.71 1128.71 2666.2C1135.24 2667.51 1141.68 2668.16 1148.03 2668.16C1156.99 2668.16 1163.62 2666.67 1167.91 2663.68C1172.39 2660.51 1174.63 2656.4 1174.63 2651.36C1174.63 2647.07 1173.14 2643.8 1170.15 2641.56C1167.35 2639.13 1163.06 2637.36 1157.27 2636.24L1129.27 2630.92C1117.7 2628.68 1108.83 2624.48 1102.67 2618.32C1096.7 2611.97 1093.71 2603.85 1093.71 2593.96C1093.71 2585 1096.14 2577.25 1100.99 2570.72C1106.03 2564.19 1112.94 2559.15 1121.71 2555.6C1130.48 2552.05 1140.56 2550.28 1151.95 2550.28C1160.16 2550.28 1167.82 2551.21 1174.91 2553.08C1182.19 2554.76 1189.19 2557.47 1195.91 2561.2C1198.71 2562.69 1200.58 2564.65 1201.51 2567.08C1202.63 2569.51 1202.91 2572.03 1202.35 2574.64C1201.79 2577.07 1200.67 2579.31 1198.99 2581.36C1197.31 2583.23 1195.16 2584.44 1192.55 2585C1190.12 2585.37 1187.32 2584.81 1184.15 2583.32C1178.36 2580.33 1172.76 2578.19 1167.35 2576.88C1162.12 2575.57 1157.08 2574.92 1152.23 2574.92C1143.08 2574.92 1136.27 2576.51 1131.79 2579.68C1127.5 2582.85 1125.35 2587.05 1125.35 2592.28C1125.35 2596.2 1126.66 2599.47 1129.27 2602.08C1131.88 2604.69 1135.9 2606.47 1141.31 2607.4L1169.31 2612.72C1181.44 2614.96 1190.59 2619.07 1196.75 2625.04C1203.1 2631.01 1206.27 2639.04 1206.27 2649.12C1206.27 2662.75 1200.95 2673.48 1190.31 2681.32C1179.67 2688.97 1165.48 2692.8 1147.75 2692.8ZM1332.76 2690C1326.6 2690 1321.84 2688.41 1318.48 2685.24C1315.31 2681.88 1313.72 2677.12 1313.72 2670.96V2511.64C1313.72 2505.48 1315.31 2500.81 1318.48 2497.64C1321.84 2494.28 1326.6 2492.6 1332.76 2492.6H1399.96C1413.78 2492.6 1425.54 2494.65 1435.24 2498.76C1444.95 2502.87 1452.32 2508.75 1457.36 2516.4C1462.59 2524.05 1465.2 2533.2 1465.2 2543.84C1465.2 2555.79 1461.75 2565.87 1454.84 2574.08C1447.94 2582.29 1438.51 2587.8 1426.56 2590.6V2586.4C1440.38 2588.45 1451.11 2593.68 1458.76 2602.08C1466.42 2610.48 1470.24 2621.4 1470.24 2634.84C1470.24 2652.39 1464.27 2666.01 1452.32 2675.72C1440.56 2685.24 1424.14 2690 1403.04 2690H1332.76ZM1348.16 2662.84H1398.56C1411.26 2662.84 1420.59 2660.41 1426.56 2655.56C1432.54 2650.52 1435.52 2643.05 1435.52 2633.16C1435.52 2623.08 1432.54 2615.61 1426.56 2610.76C1420.59 2605.91 1411.26 2603.48 1398.56 2603.48H1348.16V2662.84ZM1348.16 2576.32H1393.8C1406.12 2576.32 1415.27 2573.99 1421.24 2569.32C1427.4 2564.47 1430.48 2557.37 1430.48 2548.04C1430.48 2538.71 1427.4 2531.71 1421.24 2527.04C1415.27 2522.19 1406.12 2519.76 1393.8 2519.76H1348.16V2576.32ZM1570.62 2692.8C1555.12 2692.8 1541.78 2689.91 1530.58 2684.12C1519.38 2678.33 1510.7 2670.12 1504.54 2659.48C1498.56 2648.84 1495.58 2636.24 1495.58 2621.68C1495.58 2607.49 1498.47 2595.08 1504.26 2584.44C1510.23 2573.8 1518.35 2565.49 1528.62 2559.52C1539.07 2553.36 1550.92 2550.28 1564.18 2550.28C1573.88 2550.28 1582.56 2551.87 1590.22 2555.04C1598.06 2558.21 1604.68 2562.79 1610.1 2568.76C1615.7 2574.73 1619.9 2582.01 1622.7 2590.6C1625.68 2599 1627.18 2608.52 1627.18 2619.16C1627.18 2622.52 1625.96 2625.13 1623.54 2627C1621.3 2628.68 1618.03 2629.52 1613.74 2629.52H1523.86V2609.36H1602.54L1598.06 2613.56C1598.06 2604.97 1596.75 2597.79 1594.14 2592C1591.71 2586.21 1588.07 2581.83 1583.22 2578.84C1578.55 2575.67 1572.67 2574.08 1565.58 2574.08C1557.74 2574.08 1551.02 2575.95 1545.42 2579.68C1540 2583.23 1535.8 2588.36 1532.82 2595.08C1530.02 2601.61 1528.62 2609.45 1528.62 2618.6V2620.56C1528.62 2635.87 1532.16 2647.35 1539.26 2655C1546.54 2662.47 1557.18 2666.2 1571.18 2666.2C1576.03 2666.2 1581.44 2665.64 1587.42 2664.52C1593.58 2663.21 1599.36 2661.07 1604.78 2658.08C1608.7 2655.84 1612.15 2654.91 1615.14 2655.28C1618.12 2655.47 1620.46 2656.49 1622.14 2658.36C1624 2660.23 1625.12 2662.56 1625.5 2665.36C1625.87 2667.97 1625.31 2670.68 1623.82 2673.48C1622.51 2676.28 1620.18 2678.71 1616.82 2680.76C1610.28 2684.87 1602.72 2687.95 1594.14 2690C1585.74 2691.87 1577.9 2692.8 1570.62 2692.8ZM1717.07 2692.8C1704.94 2692.8 1694.76 2690.75 1686.55 2686.64C1678.52 2682.53 1672.55 2676.56 1668.63 2668.72C1664.71 2660.69 1662.75 2650.8 1662.75 2639.04V2579.4H1648.19C1643.71 2579.4 1640.26 2578.28 1637.83 2576.04C1635.4 2573.61 1634.19 2570.35 1634.19 2566.24C1634.19 2561.95 1635.4 2558.68 1637.83 2556.44C1640.26 2554.2 1643.71 2553.08 1648.19 2553.08H1662.75V2527.6C1662.75 2521.81 1664.24 2517.43 1667.23 2514.44C1670.4 2511.45 1674.79 2509.96 1680.39 2509.96C1685.99 2509.96 1690.28 2511.45 1693.27 2514.44C1696.26 2517.43 1697.75 2521.81 1697.75 2527.6V2553.08H1727.43C1731.91 2553.08 1735.36 2554.2 1737.79 2556.44C1740.22 2558.68 1741.43 2561.95 1741.43 2566.24C1741.43 2570.35 1740.22 2573.61 1737.79 2576.04C1735.36 2578.28 1731.91 2579.4 1727.43 2579.4H1697.75V2637.08C1697.75 2646.04 1699.71 2652.76 1703.63 2657.24C1707.55 2661.72 1713.9 2663.96 1722.67 2663.96C1725.84 2663.96 1728.64 2663.68 1731.07 2663.12C1733.5 2662.56 1735.64 2662.19 1737.51 2662C1739.75 2661.81 1741.62 2662.56 1743.11 2664.24C1744.6 2665.73 1745.35 2668.91 1745.35 2673.76C1745.35 2677.49 1744.7 2680.85 1743.39 2683.84C1742.27 2686.64 1740.12 2688.6 1736.95 2689.72C1734.52 2690.47 1731.35 2691.12 1727.43 2691.68C1723.51 2692.43 1720.06 2692.8 1717.07 2692.8ZM1816.6 2692.8C1804.47 2692.8 1794.29 2690.75 1786.08 2686.64C1778.05 2682.53 1772.08 2676.56 1768.16 2668.72C1764.24 2660.69 1762.28 2650.8 1762.28 2639.04V2579.4H1747.72C1743.24 2579.4 1739.79 2578.28 1737.36 2576.04C1734.93 2573.61 1733.72 2570.35 1733.72 2566.24C1733.72 2561.95 1734.93 2558.68 1737.36 2556.44C1739.79 2554.2 1743.24 2553.08 1747.72 2553.08H1762.28V2527.6C1762.28 2521.81 1763.77 2517.43 1766.76 2514.44C1769.93 2511.45 1774.32 2509.96 1779.92 2509.96C1785.52 2509.96 1789.81 2511.45 1792.8 2514.44C1795.79 2517.43 1797.28 2521.81 1797.28 2527.6V2553.08H1826.96C1831.44 2553.08 1834.89 2554.2 1837.32 2556.44C1839.75 2558.68 1840.96 2561.95 1840.96 2566.24C1840.96 2570.35 1839.75 2573.61 1837.32 2576.04C1834.89 2578.28 1831.44 2579.4 1826.96 2579.4H1797.28V2637.08C1797.28 2646.04 1799.24 2652.76 1803.16 2657.24C1807.08 2661.72 1813.43 2663.96 1822.2 2663.96C1825.37 2663.96 1828.17 2663.68 1830.6 2663.12C1833.03 2662.56 1835.17 2662.19 1837.04 2662C1839.28 2661.81 1841.15 2662.56 1842.64 2664.24C1844.13 2665.73 1844.88 2668.91 1844.88 2673.76C1844.88 2677.49 1844.23 2680.85 1842.92 2683.84C1841.8 2686.64 1839.65 2688.6 1836.48 2689.72C1834.05 2690.47 1830.88 2691.12 1826.96 2691.68C1823.04 2692.43 1819.59 2692.8 1816.6 2692.8ZM1927.45 2692.8C1911.96 2692.8 1898.61 2689.91 1887.41 2684.12C1876.21 2678.33 1867.53 2670.12 1861.37 2659.48C1855.4 2648.84 1852.41 2636.24 1852.41 2621.68C1852.41 2607.49 1855.31 2595.08 1861.09 2584.44C1867.07 2573.8 1875.19 2565.49 1885.45 2559.52C1895.91 2553.36 1907.76 2550.28 1921.01 2550.28C1930.72 2550.28 1939.4 2551.87 1947.05 2555.04C1954.89 2558.21 1961.52 2562.79 1966.93 2568.76C1972.53 2574.73 1976.73 2582.01 1979.53 2590.6C1982.52 2599 1984.01 2608.52 1984.01 2619.16C1984.01 2622.52 1982.8 2625.13 1980.37 2627C1978.13 2628.68 1974.87 2629.52 1970.57 2629.52H1880.69V2609.36H1959.37L1954.89 2613.56C1954.89 2604.97 1953.59 2597.79 1950.97 2592C1948.55 2586.21 1944.91 2581.83 1940.05 2578.84C1935.39 2575.67 1929.51 2574.08 1922.41 2574.08C1914.57 2574.08 1907.85 2575.95 1902.25 2579.68C1896.84 2583.23 1892.64 2588.36 1889.65 2595.08C1886.85 2601.61 1885.45 2609.45 1885.45 2618.6V2620.56C1885.45 2635.87 1889 2647.35 1896.09 2655C1903.37 2662.47 1914.01 2666.2 1928.01 2666.2C1932.87 2666.2 1938.28 2665.64 1944.25 2664.52C1950.41 2663.21 1956.2 2661.07 1961.61 2658.08C1965.53 2655.84 1968.99 2654.91 1971.97 2655.28C1974.96 2655.47 1977.29 2656.49 1978.97 2658.36C1980.84 2660.23 1981.96 2662.56 1982.33 2665.36C1982.71 2667.97 1982.15 2670.68 1980.65 2673.48C1979.35 2676.28 1977.01 2678.71 1973.65 2680.76C1967.12 2684.87 1959.56 2687.95 1950.97 2690C1942.57 2691.87 1934.73 2692.8 1927.45 2692.8ZM2029.65 2692.24C2023.86 2692.24 2019.38 2690.75 2016.21 2687.76C2013.22 2684.59 2011.73 2680.11 2011.73 2674.32V2568.48C2011.73 2562.69 2013.22 2558.31 2016.21 2555.32C2019.2 2552.33 2023.4 2550.84 2028.81 2550.84C2034.22 2550.84 2038.42 2552.33 2041.41 2555.32C2044.4 2558.31 2045.89 2562.69 2045.89 2568.48V2586.12H2043.09C2045.7 2574.92 2050.84 2566.43 2058.49 2560.64C2066.14 2554.85 2076.32 2551.4 2089.01 2550.28C2092.93 2549.91 2096.01 2550.93 2098.25 2553.36C2100.68 2555.6 2102.08 2559.15 2102.45 2564C2102.82 2568.67 2101.7 2572.49 2099.09 2575.48C2096.66 2578.28 2092.93 2579.96 2087.89 2580.52L2081.73 2581.08C2070.34 2582.2 2061.76 2585.75 2055.97 2591.72C2050.18 2597.51 2047.29 2605.72 2047.29 2616.36V2674.32C2047.29 2680.11 2045.8 2684.59 2042.81 2687.76C2039.82 2690.75 2035.44 2692.24 2029.65 2692.24ZM2260.12 2692.8C2247.98 2692.8 2237.81 2690.75 2229.6 2686.64C2221.57 2682.53 2215.6 2676.56 2211.68 2668.72C2207.76 2660.69 2205.8 2650.8 2205.8 2639.04V2579.4H2191.24C2186.76 2579.4 2183.3 2578.28 2180.88 2576.04C2178.45 2573.61 2177.24 2570.35 2177.24 2566.24C2177.24 2561.95 2178.45 2558.68 2180.88 2556.44C2183.3 2554.2 2186.76 2553.08 2191.24 2553.08H2205.8V2527.6C2205.8 2521.81 2207.29 2517.43 2210.28 2514.44C2213.45 2511.45 2217.84 2509.96 2223.44 2509.96C2229.04 2509.96 2233.33 2511.45 2236.32 2514.44C2239.3 2517.43 2240.8 2521.81 2240.8 2527.6V2553.08H2270.48C2274.96 2553.08 2278.41 2554.2 2280.84 2556.44C2283.26 2558.68 2284.48 2561.95 2284.48 2566.24C2284.48 2570.35 2283.26 2573.61 2280.84 2576.04C2278.41 2578.28 2274.96 2579.4 2270.48 2579.4H2240.8V2637.08C2240.8 2646.04 2242.76 2652.76 2246.68 2657.24C2250.6 2661.72 2256.94 2663.96 2265.72 2663.96C2268.89 2663.96 2271.69 2663.68 2274.12 2663.12C2276.54 2662.56 2278.69 2662.19 2280.56 2662C2282.8 2661.81 2284.66 2662.56 2286.16 2664.24C2287.65 2665.73 2288.4 2668.91 2288.4 2673.76C2288.4 2677.49 2287.74 2680.85 2286.44 2683.84C2285.32 2686.64 2283.17 2688.6 2280 2689.72C2277.57 2690.47 2274.4 2691.12 2270.48 2691.68C2266.56 2692.43 2263.1 2692.8 2260.12 2692.8ZM2325.77 2692.24C2320.17 2692.24 2315.88 2690.75 2312.89 2687.76C2309.9 2684.59 2308.41 2680.11 2308.41 2674.32V2508C2308.41 2502.21 2309.9 2497.83 2312.89 2494.84C2315.88 2491.85 2320.17 2490.36 2325.77 2490.36C2331.37 2490.36 2335.66 2491.85 2338.65 2494.84C2341.82 2497.83 2343.41 2502.21 2343.41 2508V2580.52H2339.49C2343.6 2570.63 2349.94 2563.16 2358.53 2558.12C2367.3 2552.89 2377.2 2550.28 2388.21 2550.28C2399.22 2550.28 2408.28 2552.33 2415.37 2556.44C2422.46 2560.55 2427.78 2566.8 2431.33 2575.2C2434.88 2583.41 2436.65 2593.87 2436.65 2606.56V2674.32C2436.65 2680.11 2435.16 2684.59 2432.17 2687.76C2429.18 2690.75 2424.89 2692.24 2419.29 2692.24C2413.69 2692.24 2409.3 2690.75 2406.13 2687.76C2403.14 2684.59 2401.65 2680.11 2401.65 2674.32V2608.24C2401.65 2597.6 2399.6 2589.85 2395.49 2585C2391.57 2580.15 2385.41 2577.72 2377.01 2577.72C2366.74 2577.72 2358.53 2580.99 2352.37 2587.52C2346.4 2593.87 2343.41 2602.36 2343.41 2613V2674.32C2343.41 2686.27 2337.53 2692.24 2325.77 2692.24ZM2517.28 2692.8C2507.39 2692.8 2498.52 2690.93 2490.68 2687.2C2483.03 2683.28 2476.96 2678.05 2472.48 2671.52C2468.19 2664.99 2466.04 2657.61 2466.04 2649.4C2466.04 2639.32 2468.65 2631.39 2473.88 2625.6C2479.11 2619.63 2487.6 2615.33 2499.36 2612.72C2511.12 2610.11 2526.89 2608.8 2546.68 2608.8H2560.68V2628.96H2546.96C2535.39 2628.96 2526.15 2629.52 2519.24 2630.64C2512.33 2631.76 2507.39 2633.72 2504.4 2636.52C2501.6 2639.13 2500.2 2642.87 2500.2 2647.72C2500.2 2653.88 2502.35 2658.92 2506.64 2662.84C2510.93 2666.76 2516.91 2668.72 2524.56 2668.72C2530.72 2668.72 2536.13 2667.32 2540.8 2664.52C2545.65 2661.53 2549.48 2657.52 2552.28 2652.48C2555.08 2647.44 2556.48 2641.65 2556.48 2635.12V2602.92C2556.48 2593.59 2554.43 2586.87 2550.32 2582.76C2546.21 2578.65 2539.31 2576.6 2529.6 2576.6C2524.19 2576.6 2518.31 2577.25 2511.96 2578.56C2505.8 2579.87 2499.27 2582.11 2492.36 2585.28C2488.81 2586.96 2485.64 2587.43 2482.84 2586.68C2480.23 2585.93 2478.17 2584.44 2476.68 2582.2C2475.19 2579.77 2474.44 2577.16 2474.44 2574.36C2474.44 2571.56 2475.19 2568.85 2476.68 2566.24C2478.17 2563.44 2480.69 2561.39 2484.24 2560.08C2492.83 2556.53 2501.04 2554.01 2508.88 2552.52C2516.91 2551.03 2524.19 2550.28 2530.72 2550.28C2544.16 2550.28 2555.17 2552.33 2563.76 2556.44C2572.53 2560.55 2579.07 2566.8 2583.36 2575.2C2587.65 2583.41 2589.8 2594.05 2589.8 2607.12V2674.32C2589.8 2680.11 2588.4 2684.59 2585.6 2687.76C2582.8 2690.75 2578.79 2692.24 2573.56 2692.24C2568.33 2692.24 2564.23 2690.75 2561.24 2687.76C2558.44 2684.59 2557.04 2680.11 2557.04 2674.32V2660.88H2559.28C2557.97 2667.41 2555.36 2673.11 2551.44 2677.96C2547.71 2682.63 2542.95 2686.27 2537.16 2688.88C2531.37 2691.49 2524.75 2692.8 2517.28 2692.8ZM2642.69 2692.24C2637.09 2692.24 2632.79 2690.75 2629.81 2687.76C2626.82 2684.59 2625.33 2680.11 2625.33 2674.32V2568.48C2625.33 2562.69 2626.82 2558.31 2629.81 2555.32C2632.79 2552.33 2636.99 2550.84 2642.41 2550.84C2647.82 2550.84 2652.02 2552.33 2655.01 2555.32C2657.99 2558.31 2659.49 2562.69 2659.49 2568.48V2587.52L2656.41 2580.52C2660.51 2570.63 2666.86 2563.16 2675.45 2558.12C2684.22 2552.89 2694.11 2550.28 2705.13 2550.28C2716.14 2550.28 2725.19 2552.33 2732.29 2556.44C2739.38 2560.55 2744.7 2566.8 2748.25 2575.2C2751.79 2583.41 2753.57 2593.87 2753.57 2606.56V2674.32C2753.57 2680.11 2752.07 2684.59 2749.09 2687.76C2746.1 2690.75 2741.81 2692.24 2736.21 2692.24C2730.61 2692.24 2726.22 2690.75 2723.05 2687.76C2720.06 2684.59 2718.57 2680.11 2718.57 2674.32V2608.24C2718.57 2597.6 2716.51 2589.85 2712.41 2585C2708.49 2580.15 2702.33 2577.72 2693.93 2577.72C2683.66 2577.72 2675.45 2580.99 2669.29 2587.52C2663.31 2593.87 2660.33 2602.36 2660.33 2613V2674.32C2660.33 2686.27 2654.45 2692.24 2642.69 2692.24ZM2934.01 2692.24C2928.22 2692.24 2923.74 2690.65 2920.57 2687.48C2917.58 2684.12 2916.09 2679.55 2916.09 2673.76V2522.56H2861.49C2856.64 2522.56 2852.81 2521.25 2850.01 2518.64C2847.4 2515.84 2846.09 2512.11 2846.09 2507.44C2846.09 2502.59 2847.4 2498.95 2850.01 2496.52C2852.81 2493.91 2856.64 2492.6 2861.49 2492.6H3006.53C3011.38 2492.6 3015.12 2493.91 3017.73 2496.52C3020.53 2498.95 3021.93 2502.59 3021.93 2507.44C3021.93 2512.11 3020.53 2515.84 3017.73 2518.64C3015.12 2521.25 3011.38 2522.56 3006.53 2522.56H2951.93V2673.76C2951.93 2679.55 2950.44 2684.12 2947.45 2687.48C2944.46 2690.65 2939.98 2692.24 2934.01 2692.24ZM3035.08 2692.24C3029.29 2692.24 3024.81 2690.75 3021.64 2687.76C3018.65 2684.59 3017.16 2680.11 3017.16 2674.32V2568.48C3017.16 2562.69 3018.65 2558.31 3021.64 2555.32C3024.63 2552.33 3028.83 2550.84 3034.24 2550.84C3039.65 2550.84 3043.85 2552.33 3046.84 2555.32C3049.83 2558.31 3051.32 2562.69 3051.32 2568.48V2586.12H3048.52C3051.13 2574.92 3056.27 2566.43 3063.92 2560.64C3071.57 2554.85 3081.75 2551.4 3094.44 2550.28C3098.36 2549.91 3101.44 2550.93 3103.68 2553.36C3106.11 2555.6 3107.51 2559.15 3107.88 2564C3108.25 2568.67 3107.13 2572.49 3104.52 2575.48C3102.09 2578.28 3098.36 2579.96 3093.32 2580.52L3087.16 2581.08C3075.77 2582.2 3067.19 2585.75 3061.4 2591.72C3055.61 2597.51 3052.72 2605.72 3052.72 2616.36V2674.32C3052.72 2680.11 3051.23 2684.59 3048.24 2687.76C3045.25 2690.75 3040.87 2692.24 3035.08 2692.24ZM3176.37 2692.8C3164.98 2692.8 3155.56 2690.75 3148.09 2686.64C3140.62 2682.35 3135.02 2676 3131.29 2667.6C3127.74 2659.2 3125.97 2648.75 3125.97 2636.24V2568.48C3125.97 2562.51 3127.46 2558.12 3130.45 2555.32C3133.44 2552.33 3137.73 2550.84 3143.33 2550.84C3148.93 2550.84 3153.22 2552.33 3156.21 2555.32C3159.38 2558.12 3160.97 2562.51 3160.97 2568.48V2636.8C3160.97 2646.51 3162.93 2653.69 3166.85 2658.36C3170.77 2663.03 3177.02 2665.36 3185.61 2665.36C3194.94 2665.36 3202.6 2662.19 3208.57 2655.84C3214.54 2649.31 3217.53 2640.72 3217.53 2630.08V2568.48C3217.53 2562.51 3219.02 2558.12 3222.01 2555.32C3225 2552.33 3229.29 2550.84 3234.89 2550.84C3240.49 2550.84 3244.78 2552.33 3247.77 2555.32C3250.94 2558.12 3252.53 2562.51 3252.53 2568.48V2674.32C3252.53 2686.27 3246.84 2692.24 3235.45 2692.24C3230.04 2692.24 3225.84 2690.75 3222.85 2687.76C3219.86 2684.59 3218.37 2680.11 3218.37 2674.32V2653.04L3222.29 2661.44C3218.37 2671.52 3212.4 2679.27 3204.37 2684.68C3196.53 2690.09 3187.2 2692.8 3176.37 2692.8ZM3339.08 2692.8C3331.05 2692.8 3322.56 2691.96 3313.6 2690.28C3304.64 2688.6 3296.61 2685.71 3289.52 2681.6C3286.53 2679.73 3284.38 2677.59 3283.08 2675.16C3281.96 2672.55 3281.49 2670.03 3281.68 2667.6C3282.05 2664.99 3282.98 2662.75 3284.48 2660.88C3286.16 2659.01 3288.21 2657.8 3290.64 2657.24C3293.25 2656.68 3296.05 2657.15 3299.04 2658.64C3306.5 2662.19 3313.5 2664.71 3320.04 2666.2C3326.57 2667.51 3333.01 2668.16 3339.36 2668.16C3348.32 2668.16 3354.94 2666.67 3359.24 2663.68C3363.72 2660.51 3365.96 2656.4 3365.96 2651.36C3365.96 2647.07 3364.46 2643.8 3361.48 2641.56C3358.68 2639.13 3354.38 2637.36 3348.6 2636.24L3320.6 2630.92C3309.02 2628.68 3300.16 2624.48 3294 2618.32C3288.02 2611.97 3285.04 2603.85 3285.04 2593.96C3285.04 2585 3287.46 2577.25 3292.32 2570.72C3297.36 2564.19 3304.26 2559.15 3313.04 2555.6C3321.81 2552.05 3331.89 2550.28 3343.28 2550.28C3351.49 2550.28 3359.14 2551.21 3366.24 2553.08C3373.52 2554.76 3380.52 2557.47 3387.24 2561.2C3390.04 2562.69 3391.9 2564.65 3392.84 2567.08C3393.96 2569.51 3394.24 2572.03 3393.68 2574.64C3393.12 2577.07 3392 2579.31 3390.32 2581.36C3388.64 2583.23 3386.49 2584.44 3383.88 2585C3381.45 2585.37 3378.65 2584.81 3375.48 2583.32C3369.69 2580.33 3364.09 2578.19 3358.68 2576.88C3353.45 2575.57 3348.41 2574.92 3343.56 2574.92C3334.41 2574.92 3327.6 2576.51 3323.12 2579.68C3318.82 2582.85 3316.68 2587.05 3316.68 2592.28C3316.68 2596.2 3317.98 2599.47 3320.6 2602.08C3323.21 2604.69 3327.22 2606.47 3332.64 2607.4L3360.64 2612.72C3372.77 2614.96 3381.92 2619.07 3388.08 2625.04C3394.42 2631.01 3397.6 2639.04 3397.6 2649.12C3397.6 2662.75 3392.28 2673.48 3381.64 2681.32C3371 2688.97 3356.81 2692.8 3339.08 2692.8ZM3487.03 2692.8C3474.9 2692.8 3464.72 2690.75 3456.51 2686.64C3448.48 2682.53 3442.51 2676.56 3438.59 2668.72C3434.67 2660.69 3432.71 2650.8 3432.71 2639.04V2579.4H3418.15C3413.67 2579.4 3410.22 2578.28 3407.79 2576.04C3405.36 2573.61 3404.15 2570.35 3404.15 2566.24C3404.15 2561.95 3405.36 2558.68 3407.79 2556.44C3410.22 2554.2 3413.67 2553.08 3418.15 2553.08H3432.71V2527.6C3432.71 2521.81 3434.2 2517.43 3437.19 2514.44C3440.36 2511.45 3444.75 2509.96 3450.35 2509.96C3455.95 2509.96 3460.24 2511.45 3463.23 2514.44C3466.22 2517.43 3467.71 2521.81 3467.71 2527.6V2553.08H3497.39C3501.87 2553.08 3505.32 2554.2 3507.75 2556.44C3510.18 2558.68 3511.39 2561.95 3511.39 2566.24C3511.39 2570.35 3510.18 2573.61 3507.75 2576.04C3505.32 2578.28 3501.87 2579.4 3497.39 2579.4H3467.71V2637.08C3467.71 2646.04 3469.67 2652.76 3473.59 2657.24C3477.51 2661.72 3483.86 2663.96 3492.63 2663.96C3495.8 2663.96 3498.6 2663.68 3501.03 2663.12C3503.46 2662.56 3505.6 2662.19 3507.47 2662C3509.71 2661.81 3511.58 2662.56 3513.07 2664.24C3514.56 2665.73 3515.31 2668.91 3515.31 2673.76C3515.31 2677.49 3514.66 2680.85 3513.35 2683.84C3512.23 2686.64 3510.08 2688.6 3506.91 2689.72C3504.48 2690.47 3501.31 2691.12 3497.39 2691.68C3493.47 2692.43 3490.02 2692.8 3487.03 2692.8Z" fill="white"/>
</g>
<defs>
<clipPath id="clip0_8_2">
<rect width="3690" height="2935" fill="white"/>
</clipPath>
</defs>
</svg>
